<mxfile host="Electron" modified="2024-07-09T11:07:26.359Z" agent="Mozilla/5.0 (Windows NT 10.0; Win64; x64) AppleWebKit/537.36 (KHTML, like Gecko) draw.io/24.6.4 Chrome/124.0.6367.207 Electron/30.0.6 Safari/537.36" etag="MMXLAI9bUY5pC04TdrT0" version="24.6.4" type="device">
  <diagram name="Page-1" id="2YBvvXClWsGukQMizWep">
    <mxGraphModel dx="1050" dy="629" grid="1" gridSize="10" guides="1" tooltips="1" connect="1" arrows="1" fold="1" page="1" pageScale="1" pageWidth="850" pageHeight="1100" math="0" shadow="0">
      <root>
        <mxCell id="0" />
        <mxCell id="1" parent="0" />
        <mxCell id="cCNTNB3qHJ6nL9LXRdiM-39" value="User" style="shape=umlLifeline;perimeter=lifelinePerimeter;whiteSpace=wrap;html=1;container=0;dropTarget=0;collapsible=0;recursiveResize=0;outlineConnect=0;portConstraint=eastwest;newEdgeStyle={&quot;edgeStyle&quot;:&quot;elbowEdgeStyle&quot;,&quot;elbow&quot;:&quot;vertical&quot;,&quot;curved&quot;:0,&quot;rounded&quot;:0};" parent="1" vertex="1">
          <mxGeometry x="50" y="40" width="100" height="430" as="geometry" />
        </mxCell>
        <mxCell id="cCNTNB3qHJ6nL9LXRdiM-40" value="" style="html=1;points=[];perimeter=orthogonalPerimeter;outlineConnect=0;targetShapes=umlLifeline;portConstraint=eastwest;newEdgeStyle={&quot;edgeStyle&quot;:&quot;elbowEdgeStyle&quot;,&quot;elbow&quot;:&quot;vertical&quot;,&quot;curved&quot;:0,&quot;rounded&quot;:0};" parent="cCNTNB3qHJ6nL9LXRdiM-39" vertex="1">
          <mxGeometry x="45" y="80" width="10" height="300" as="geometry" />
        </mxCell>
        <mxCell id="cCNTNB3qHJ6nL9LXRdiM-43" value="Backend" style="shape=umlLifeline;perimeter=lifelinePerimeter;whiteSpace=wrap;html=1;container=0;dropTarget=0;collapsible=0;recursiveResize=0;outlineConnect=0;portConstraint=eastwest;newEdgeStyle={&quot;edgeStyle&quot;:&quot;elbowEdgeStyle&quot;,&quot;elbow&quot;:&quot;vertical&quot;,&quot;curved&quot;:0,&quot;rounded&quot;:0};" parent="1" vertex="1">
          <mxGeometry x="360" y="40" width="100" height="440" as="geometry" />
        </mxCell>
        <mxCell id="cCNTNB3qHJ6nL9LXRdiM-44" value="" style="html=1;points=[];perimeter=orthogonalPerimeter;outlineConnect=0;targetShapes=umlLifeline;portConstraint=eastwest;newEdgeStyle={&quot;edgeStyle&quot;:&quot;elbowEdgeStyle&quot;,&quot;elbow&quot;:&quot;vertical&quot;,&quot;curved&quot;:0,&quot;rounded&quot;:0};" parent="cCNTNB3qHJ6nL9LXRdiM-43" vertex="1">
          <mxGeometry x="45" y="80" width="10" height="280" as="geometry" />
        </mxCell>
        <mxCell id="cCNTNB3qHJ6nL9LXRdiM-45" value="Data Base" style="shape=umlLifeline;perimeter=lifelinePerimeter;whiteSpace=wrap;html=1;container=0;dropTarget=0;collapsible=0;recursiveResize=0;outlineConnect=0;portConstraint=eastwest;newEdgeStyle={&quot;edgeStyle&quot;:&quot;elbowEdgeStyle&quot;,&quot;elbow&quot;:&quot;vertical&quot;,&quot;curved&quot;:0,&quot;rounded&quot;:0};" parent="1" vertex="1">
          <mxGeometry x="700" y="40" width="100" height="420" as="geometry" />
        </mxCell>
        <mxCell id="cCNTNB3qHJ6nL9LXRdiM-46" value="" style="html=1;points=[];perimeter=orthogonalPerimeter;outlineConnect=0;targetShapes=umlLifeline;portConstraint=eastwest;newEdgeStyle={&quot;edgeStyle&quot;:&quot;elbowEdgeStyle&quot;,&quot;elbow&quot;:&quot;vertical&quot;,&quot;curved&quot;:0,&quot;rounded&quot;:0};" parent="cCNTNB3qHJ6nL9LXRdiM-45" vertex="1">
          <mxGeometry x="45" y="80" width="10" height="280" as="geometry" />
        </mxCell>
        <mxCell id="cCNTNB3qHJ6nL9LXRdiM-50" value="отправка логина и пароля" style="html=1;verticalAlign=bottom;endArrow=block;edgeStyle=elbowEdgeStyle;elbow=vertical;curved=0;rounded=0;" parent="1" edge="1">
          <mxGeometry relative="1" as="geometry">
            <mxPoint x="110" y="140" as="sourcePoint" />
            <Array as="points">
              <mxPoint x="200" y="140" />
            </Array>
            <mxPoint x="399.5" y="140" as="targetPoint" />
            <mxPoint as="offset" />
          </mxGeometry>
        </mxCell>
        <mxCell id="cCNTNB3qHJ6nL9LXRdiM-51" value="отправка логина и пароля" style="html=1;verticalAlign=bottom;endArrow=block;edgeStyle=elbowEdgeStyle;elbow=vertical;curved=0;rounded=0;" parent="1" edge="1">
          <mxGeometry relative="1" as="geometry">
            <mxPoint x="420" y="160" as="sourcePoint" />
            <Array as="points">
              <mxPoint x="510" y="160" />
            </Array>
            <mxPoint x="744.5" y="160" as="targetPoint" />
            <mxPoint as="offset" />
          </mxGeometry>
        </mxCell>
        <mxCell id="cCNTNB3qHJ6nL9LXRdiM-53" value="" style="edgeStyle=orthogonalEdgeStyle;rounded=0;orthogonalLoop=1;jettySize=auto;html=1;elbow=vertical;" parent="1" edge="1">
          <mxGeometry relative="1" as="geometry">
            <mxPoint x="745" y="170" as="sourcePoint" />
            <mxPoint x="749.5" y="220" as="targetPoint" />
            <Array as="points">
              <mxPoint x="746" y="170" />
              <mxPoint x="746" y="190" />
              <mxPoint x="540" y="190" />
              <mxPoint x="540" y="220" />
            </Array>
          </mxGeometry>
        </mxCell>
        <mxCell id="cCNTNB3qHJ6nL9LXRdiM-54" value="сервка логина и пароля" style="edgeLabel;html=1;align=center;verticalAlign=middle;resizable=0;points=[];" parent="cCNTNB3qHJ6nL9LXRdiM-53" vertex="1" connectable="0">
          <mxGeometry x="-0.6313" y="-1" relative="1" as="geometry">
            <mxPoint x="-41" as="offset" />
          </mxGeometry>
        </mxCell>
        <mxCell id="cCNTNB3qHJ6nL9LXRdiM-56" value="" style="edgeStyle=elbowEdgeStyle;rounded=0;orthogonalLoop=1;jettySize=auto;html=1;elbow=vertical;curved=0;dashed=1;" parent="1" edge="1">
          <mxGeometry relative="1" as="geometry">
            <mxPoint x="745" y="250" as="sourcePoint" />
            <mxPoint x="420" y="250" as="targetPoint" />
          </mxGeometry>
        </mxCell>
        <mxCell id="cCNTNB3qHJ6nL9LXRdiM-57" value="существет данный пользователь" style="edgeLabel;html=1;align=center;verticalAlign=middle;resizable=0;points=[];" parent="cCNTNB3qHJ6nL9LXRdiM-56" vertex="1" connectable="0">
          <mxGeometry x="0.1744" y="1" relative="1" as="geometry">
            <mxPoint as="offset" />
          </mxGeometry>
        </mxCell>
        <mxCell id="cCNTNB3qHJ6nL9LXRdiM-59" value="" style="edgeStyle=elbowEdgeStyle;rounded=0;orthogonalLoop=1;jettySize=auto;html=1;elbow=vertical;curved=0;" parent="1" edge="1">
          <mxGeometry relative="1" as="geometry">
            <mxPoint x="415" y="300" as="sourcePoint" />
            <mxPoint x="740" y="300" as="targetPoint" />
          </mxGeometry>
        </mxCell>
        <mxCell id="cCNTNB3qHJ6nL9LXRdiM-60" value="запрос на получение всех мест" style="edgeLabel;html=1;align=center;verticalAlign=middle;resizable=0;points=[];" parent="cCNTNB3qHJ6nL9LXRdiM-59" vertex="1" connectable="0">
          <mxGeometry x="-0.0194" y="2" relative="1" as="geometry">
            <mxPoint as="offset" />
          </mxGeometry>
        </mxCell>
        <mxCell id="cCNTNB3qHJ6nL9LXRdiM-61" value="" style="edgeStyle=elbowEdgeStyle;rounded=0;orthogonalLoop=1;jettySize=auto;html=1;elbow=vertical;curved=0;dashed=1;" parent="1" edge="1">
          <mxGeometry relative="1" as="geometry">
            <mxPoint x="740" y="320" as="sourcePoint" />
            <mxPoint x="420" y="320" as="targetPoint" />
          </mxGeometry>
        </mxCell>
        <mxCell id="cCNTNB3qHJ6nL9LXRdiM-62" value="все полученные места" style="edgeLabel;html=1;align=center;verticalAlign=middle;resizable=0;points=[];" parent="cCNTNB3qHJ6nL9LXRdiM-61" vertex="1" connectable="0">
          <mxGeometry x="0.1744" y="1" relative="1" as="geometry">
            <mxPoint as="offset" />
          </mxGeometry>
        </mxCell>
        <mxCell id="cCNTNB3qHJ6nL9LXRdiM-63" value="" style="edgeStyle=elbowEdgeStyle;rounded=0;orthogonalLoop=1;jettySize=auto;html=1;elbow=vertical;curved=0;dashed=1;" parent="1" edge="1">
          <mxGeometry relative="1" as="geometry">
            <mxPoint x="400" y="360" as="sourcePoint" />
            <mxPoint x="105" y="360" as="targetPoint" />
          </mxGeometry>
        </mxCell>
        <mxCell id="cCNTNB3qHJ6nL9LXRdiM-64" value="все полученные места" style="edgeLabel;html=1;align=center;verticalAlign=middle;resizable=0;points=[];" parent="cCNTNB3qHJ6nL9LXRdiM-63" vertex="1" connectable="0">
          <mxGeometry x="0.1744" y="1" relative="1" as="geometry">
            <mxPoint as="offset" />
          </mxGeometry>
        </mxCell>
        <mxCell id="cCNTNB3qHJ6nL9LXRdiM-66" value="" style="edgeStyle=elbowEdgeStyle;rounded=0;orthogonalLoop=1;jettySize=auto;html=1;elbow=vertical;curved=0;dashed=1;" parent="1" target="cCNTNB3qHJ6nL9LXRdiM-39" edge="1">
          <mxGeometry relative="1" as="geometry">
            <mxPoint x="405" y="270" as="sourcePoint" />
            <mxPoint x="320" y="270" as="targetPoint" />
          </mxGeometry>
        </mxCell>
        <mxCell id="cCNTNB3qHJ6nL9LXRdiM-67" value="успешно авторизовались" style="edgeLabel;html=1;align=center;verticalAlign=middle;resizable=0;points=[];" parent="cCNTNB3qHJ6nL9LXRdiM-66" vertex="1" connectable="0">
          <mxGeometry x="-0.2799" y="-3" relative="1" as="geometry">
            <mxPoint x="-45" as="offset" />
          </mxGeometry>
        </mxCell>
      </root>
    </mxGraphModel>
  </diagram>
</mxfile>
